{
  "accessors": [
    {
      "bufferView": 2,
      "componentType": 5126,
      "count": 8264,
      "max": [
        1.5944206714630127,
        4.922435283660889,
        0.9700585603713989
      ],
      "min": [
        -1.5944206714630127,
        -0.013369083404541016,
        -2.041656494140625
      ],
      "type": "VEC3"
    },
    {
      "bufferView": 2,
      "byteOffset": 99168,
      "componentType": 5126,
      "count": 8264,
      "max": [
        0.9999655485153198,
        0.9999760389328003,
        0.9999999403953552
      ],
      "min": [
        -0.9999655485153198,
        -0.99968022108078,
        -0.9999876022338867
      ],
      "type": "VEC3"
    },
    {
      "bufferView": 3,
      "componentType": 5126,
      "count": 8264,
      "max": [
        1.0,
        1.0,
        1.0,
        1.0
      ],
      "min": [
        0.007843137718737125,
        0.003921568859368563,
        0.003921568859368563,
        1.0
      ],
      "type": "VEC4"
    },
    {
      "bufferView": 1,
      "componentType": 5126,
      "count": 8264,
      "max": [
        0.9964891672134399,
        1.0
      ],
      "min": [
        0.0,
        0.0
      ],
      "type": "VEC2"
    },
    {
      "bufferView": 0,
      "componentType": 5125,
      "count": 30720,
      "type": "SCALAR"
    },
    {
      "bufferView": 2,
      "byteOffset": 198336,
      "componentType": 5126,
      "count": 951,
      "max": [
        0.819409966468811,
        3.0973410606384277,
        0.563544511795044
      ],
      "min": [
        -0.819409966468811,
        0.7667984962463379,
        -0.6795067191123962
      ],
      "type": "VEC3"
    },
    {
      "bufferView": 2,
      "byteOffset": 209748,
      "componentType": 5126,
      "count": 951,
      "max": [
        0.9992203712463379,
        0.948052167892456,
        0.9997653961181641
      ],
      "min": [
        -0.9992204308509827,
        -0.9882780909538269,
        -0.9998345375061035
      ],
      "type": "VEC3"
    },
    {
      "bufferView": 3,
      "byteOffset": 132224,
      "componentType": 5126,
      "count": 951,
      "max": [
        0.6509804129600525,
        0.6509804129600525,
        0.6509804129600525,
        1.0
      ],
      "min": [
        0.05098039284348488,
        0.16470588743686676,
        0.4431372582912445,
        1.0
      ],
      "type": "VEC4"
    },
    {
      "bufferView": 1,
      "byteOffset": 66112,
      "componentType": 5126,
      "count": 951,
      "max": [
        1.0,
        0.9367343187332153
      ],
      "min": [
        0.0,
        0.0
      ],
      "type": "VEC2"
    },
    {
      "bufferView": 0,
      "byteOffset": 122880,
      "componentType": 5125,
      "count": 3402,
      "type": "SCALAR"
    },
    {
      "bufferView": 2,
      "byteOffset": 221160,
      "componentType": 5126,
      "count": 15077,
      "max": [
        1.2585511207580566,
        0.5148975849151611,
        1.285561442375183
      ],
      "min": [
        -1.282106637954712,
        -0.43847838044166565,
        -1.2903064489364624
      ],
      "type": "VEC3"
    },
    {
      "bufferView": 2,
      "byteOffset": 402084,
      "componentType": 5126,
      "count": 15077,
      "max": [
        0.9998416900634766,
        0.9994327425956726,
        0.9994052052497864
      ],
      "min": [
        -0.9998416304588318,
        -0.999973714351654,
        -0.9996300339698792
      ],
      "type": "VEC3"
    },
    {
      "bufferView": 3,
      "byteOffset": 147440,
      "componentType": 5126,
      "count": 15077,
      "max": [
        1.0,
        1.0,
        1.0,
        1.0
      ],
      "min": [
        0.0235294122248888,
        0.545098066329956,
        0.019607843831181526,
        0.9843137264251709
      ],
      "type": "VEC4"
    },
    {
      "bufferView": 1,
      "byteOffset": 73720,
      "componentType": 5126,
      "count": 15077,
      "max": [
        1.0,
        0.9998583793640137
      ],
      "min": [
        0.0,
        0.0
      ],
      "type": "VEC2"
    },
    {
      "bufferView": 0,
      "byteOffset": 136488,
      "componentType": 5125,
      "count": 40896,
      "type": "SCALAR"
    }
  ],
  "asset": {
    "extras": {
      "author": "Mish7913 (https://sketchfab.com/mish7913)",
      "license": "CC-BY-4.0 (http://creativecommons.org/licenses/by/4.0/)",
      "source": "https://sketchfab.com/3d-models/suzanne-2048b859fb114eacad0b457f1741372f",
      "title": "Suzanne"
    },
    "generator": "Sketchfab-16.16.0",
    "version": "2.0"
  },
  "bufferViews": [
    {
      "buffer": 0,
      "byteLength": 300072,
      "name": "floatBufferViews",
      "target": 34963
    },
    {
      "buffer": 0,
      "byteLength": 194336,
      "byteOffset": 300072,
      "byteStride": 8,
      "name": "floatBufferViews",
      "target": 34962
    },
    {
      "buffer": 0,
      "byteLength": 583008,
      "byteOffset": 494408,
      "byteStride": 12,
      "name": "floatBufferViews",
      "target": 34962
    },
    {
      "buffer": 0,
      "byteLength": 388672,
      "byteOffset": 1077416,
      "byteStride": 16,
      "name": "floatBufferViews",
      "target": 34962
    }
  ],
  "buffers": [
    {
      "byteLength": 1466088,
      "uri": "scene.bin"
    }
  ],
  "extensionsUsed": [
    "KHR_materials_specular"
  ],
  "materials": [
    {
      "doubleSided": true,
      "extensions": {
        "KHR_materials_specular": {
          "specularColorFactor": [
            1.0,
            1.0,
            1.0
          ],
          "specularFactor": 0.40685838280649994
        }
      },
      "name": "Material",
      "pbrMetallicRoughness": {
        "metallicFactor": 0.0,
        "roughnessFactor": 0.8579073764796235
      }
    }
  ],
  "meshes": [
    {
      "name": "Object_0",
      "primitives": [
        {
          "attributes": {
            "COLOR_0": 2,
            "NORMAL": 1,
            "POSITION": 0,
            "TEXCOORD_0": 3
          },
          "indices": 4,
          "material": 0,
          "mode": 4
        }
      ]
    },
    {
      "name": "Object_1",
      "primitives": [
        {
          "attributes": {
            "COLOR_0": 7,
            "NORMAL": 6,
            "POSITION": 5,
            "TEXCOORD_0": 8
          },
          "indices": 9,
          "material": 0,
          "mode": 4
        }
      ]
    },
    {
      "name": "Object_2",
      "primitives": [
        {
          "attributes": {
            "COLOR_0": 12,
            "NORMAL": 11,
            "POSITION": 10,
            "TEXCOORD_0": 13
          },
          "indices": 14,
          "material": 0,
          "mode": 4
        }
      ]
    }
  ],
  "nodes": [
    {
      "children": [
        1
      ],
      "matrix": [
        0.20725756883621216,
        0.0,
        0.0,
        0.0,
        0.0,
        4.602042498995921e-17,
        -0.20725756883621216,
        0.0,
        0.0,
        0.20725756883621216,
        4.602042498995921e-17,
        0.0,
        0.0,
        0.0,
        0.0,
        1.0
      ],
      "name": "Sketchfab_model"
    },
    {
      "children": [
        2
      ],
      "name": "root"
    },
    {
      "children": [
        3,
        5,
        7
      ],
      "matrix": [
        1.0,
        0.0,
        0.0,
        0.0,
        0.0,
        2.220446049250313e-16,
        1.0,
        0.0,
        0.0,
        -1.0,
        2.220446049250313e-16,
        0.0,
        0.0,
        0.0,
        0.0,
        1.0
      ],
      "name": "GLTF_SceneRootNode"
    },
    {
      "children": [
        4
      ],
      "name": "Suzanne_0"
    },
    {
      "mesh": 0,
      "name": "Object_4"
    },
    {
      "children": [
        6
      ],
      "name": "Dress_1"
    },
    {
      "mesh": 1,
      "name": "Object_6"
    },
    {
      "children": [
        8
      ],
      "matrix": [
        0.8323008418083191,
        0.0,
        -0.0,
        0.0,
        -0.0,
        0.7923928488442978,
        -0.25463358846635786,
        0.0,
        0.0,
        0.25463358846635786,
        0.7923928488442978,
        0.0,
        0.0,
        4.33151912689209,
        -0.16895698010921478,
        1.0
      ],
      "name": "Diadem_2"
    },
    {
      "mesh": 2,
      "name": "Object_8"
    }
  ],
  "scene": 0,
  "scenes": [
    {
      "name": "Sketchfab_Scene",
      "nodes": [
        0
      ]
    }
  ]
}
